<svg width="58" height="61" viewBox="0 0 58 61" fill="none" xmlns="http://www.w3.org/2000/svg">
<path fill-rule="evenodd" clip-rule="evenodd" d="M13.7615 20.0771C14.4659 19.9142 15.2006 20.1445 15.7037 20.686L38.3798 45.0918C38.8834 45.6338 39.0832 46.4102 38.9079 47.1439C38.7325 47.8776 38.207 48.4639 37.519 48.6934L2.79482 60.2769C2.04213 60.528 1.21862 60.3116 0.668204 59.7181C0.117785 59.1246 -0.0648655 58.2561 0.196532 57.4752L12.2446 21.486C12.4833 20.7729 13.0571 20.24 13.7615 20.0771ZM15.0636 26.2553L5.51113 54.79L33.0428 45.6058L15.0636 26.2553Z" fill="#1E9716"/>
<path fill-rule="evenodd" clip-rule="evenodd" d="M32.6356 5.73149C33.4493 4.8792 34.7684 4.8792 35.5821 5.73149C37.3305 7.56295 38.2508 9.79481 37.9076 12.3119C37.5842 14.6828 36.1867 16.9141 34.1931 19.0024L27.2483 26.2771C26.4346 27.1294 25.1155 27.1294 24.3018 26.2771C23.4882 25.4248 23.4882 24.043 24.3018 23.1907L31.2467 15.916C32.957 14.1245 33.6429 12.7185 33.7825 11.6946C33.9023 10.8168 33.6651 9.89628 32.6356 8.81787C31.822 7.96559 31.822 6.58377 32.6356 5.73149Z" fill="#1E9716"/>
<path fill-rule="evenodd" clip-rule="evenodd" d="M47.9985 24.7339C46.431 24.7339 44.6148 25.545 42.5269 27.732L35.5821 35.0067C34.7684 35.859 33.4493 35.859 32.6356 35.0067C31.822 34.1544 31.822 32.7726 32.6356 31.9203L39.5805 24.6457C42.1225 21.9829 44.9361 20.3691 47.9985 20.3691C51.0609 20.3691 53.8745 21.9829 56.4166 24.6457C57.2302 25.4979 57.2302 26.8798 56.4166 27.732C55.6029 28.5843 54.2838 28.5843 53.4701 27.732C51.3823 25.545 49.566 24.7339 47.9985 24.7339Z" fill="#1E9716"/>
<path d="M21.6081 7.27468C23.1424 7.27468 24.3861 5.97188 24.3861 4.36481C24.3861 2.75773 23.1424 1.45494 21.6081 1.45494C20.0739 1.45494 18.8302 2.75773 18.8302 4.36481C18.8302 5.97188 20.0739 7.27468 21.6081 7.27468Z" fill="#1E9716"/>
<path d="M52.1654 5.81974C53.6996 5.81974 54.9434 4.51695 54.9434 2.90987C54.9434 1.30279 53.6996 0 52.1654 0C50.6312 0 49.3875 1.30279 49.3875 2.90987C49.3875 4.51695 50.6312 5.81974 52.1654 5.81974Z" fill="#1E9716"/>
<path d="M52.1654 39.2833C53.6996 39.2833 54.9434 37.9805 54.9434 36.3734C54.9434 34.7663 53.6996 33.4635 52.1654 33.4635C50.6312 33.4635 49.3875 34.7663 49.3875 36.3734C49.3875 37.9805 50.6312 39.2833 52.1654 39.2833Z" fill="#1E9716"/>
<path d="M47.9985 52.3777C49.5327 52.3777 50.7765 51.0749 50.7765 49.4678C50.7765 47.8607 49.5327 46.5579 47.9985 46.5579C46.4643 46.5579 45.2206 47.8607 45.2206 49.4678C45.2206 51.0749 46.4643 52.3777 47.9985 52.3777Z" fill="#1E9716"/>
</svg>
